<svg xmlns="http://www.w3.org/2000/svg" viewBox="0 0 171.82 227.97"><defs><style>.cls-1{fill:#007771;}.cls-2{fill:#fff;}</style></defs><g id="Layer_2" data-name="Layer 2"><g id="Layer_1-2" data-name="Layer 1"><polygon class="cls-1" points="106.31 167.19 85.91 152.4 65.51 167.19 74.54 223.64 49.64 198.75 43.13 157.91 85.91 126.89 128.7 157.91 122.18 198.75 97.29 223.64 106.31 167.19"/><path class="cls-2" d="M85.91,128.74l15,10.9,26.12,18.94L120.78,198,99.5,219.31l8.44-52.79-22-16-22,16,8.43,52.79L51.05,198l-6.29-39.45,26.12-18.94,15-10.9m0-3.7-1.76,1.27-15,10.91L43,156.15l-1.49,1.09.29,1.81,6.29,39.45.16,1,.68.69L70.2,221.43,76.75,228l-1.46-9.14-8.15-51,18.77-13.61,18.78,13.61-8.15,51L95.08,228l6.54-6.54,21.28-21.28.69-.69.15-1L130,159.05l.29-1.81-1.49-1.09-26.12-18.93-15-10.91L85.91,125Z"/><polygon class="cls-1" points="148.42 141.93 85.91 98.55 23.4 141.93 26.92 180.04 4.06 157.18 1.73 131.83 28.11 113.52 1.6 93.66 4.31 71.74 28.02 48.04 23.56 84.3 45.99 101.12 68.49 85.49 43.37 65.97 48.11 27.94 71.9 4.15 65.3 56.88 85.91 72.91 106.53 56.88 99.93 4.15 123.71 27.94 128.46 65.97 120.44 72.19 103.33 85.49 125.84 101.12 148.27 84.3 143.81 48.04 167.52 71.74 170.23 93.67 143.72 113.52 170.1 131.83 167.77 157.18 144.91 180.04 148.42 141.93"/><path class="cls-2" d="M69.87,8.31,63.7,57.54,85.91,74.81l22.21-17.27L102,8.31l20.33,20.32,4.57,36.68L119.52,71,100.8,85.55,125.87,103l24-18-4-32.8,20.26,20.26L168.63,93l-27.48,20.58,27.37,19-2.19,23.94L146.78,176,150,141.2,85.91,96.73,21.83,141.2,25,176,5.5,156.5,3.3,132.56l27.37-19L3.19,93,5.73,72.44,26,52.18,22,85l24,18L71,85.55,45,65.31l4.58-36.68L69.87,8.31M73.93,0,67.74,6.18,47.42,26.51l-.73.73-.13,1L42,64.94l-.21,1.69,1.35,1.05L66,85.42,46,99.27,25.15,83.62,29,52.54,30,43.89l-6.16,6.17L3.61,70.32l-.73.73-.12,1L.21,92.62,0,94.34l1.39,1,24.16,18.09-24,16.61-1.43,1,.16,1.74,2.19,23.94.1,1.08.77.77,19.54,19.54L28.8,184,28,175.77,25,142.67l60.93-42.29,60.94,42.29-3.06,33.1L143,184l5.87-5.88,19.55-19.54.76-.77.1-1.08,2.2-23.94.16-1.74-1.44-1-23.95-16.61,24.15-18.09,1.39-1-.21-1.72-2.54-20.55-.13-1-.73-.73L148,50.06l-6.16-6.17,1.06,8.65,3.82,31.08L125.8,99.27,105.86,85.42l15.51-12,7.33-5.69,1.35-1.05-.21-1.69-4.58-36.68-.12-1-.73-.73L104.08,6.18,97.9,0,99,8.68l6,47.54L85.91,71l-19-14.79,6-47.54L73.93,0Z"/></g></g></svg>